<svg id="Capa_1" data-name="Capa 1" xmlns="http://www.w3.org/2000/svg" xmlns:xlink="http://www.w3.org/1999/xlink" viewBox="0 0 1000 1000"><defs><style>.cls-1{fill:url(#Degradado_sin_nombre_33);}</style><radialGradient id="Degradado_sin_nombre_33" cx="500" cy="500.13" r="276.92" gradientUnits="userSpaceOnUse"><stop offset="0" stop-color="aqua"/><stop offset="1" stop-color="#5aaee3"/></radialGradient></defs><title>Icon white</title><path class="cls-1" d="M500,223.21c-152.94,0-276.92,124-276.92,276.92S347.06,777.05,500,777.05s276.92-124,276.92-276.92S652.94,223.21,500,223.21ZM622.81,388l-54.23,18.41-47.45-98.48ZM595.37,500.13,559,575.55H441l-36.34-75.42,36.27-75.29H559.09Zm-44.26-91.86H448.89L500,302.19ZM478.87,307.88l-47.45,98.48L377.19,388Zm-111.5,94.24,56.8,19.27-33.94,70.45H367.37Zm0,106.29h22.86l34,70.57-56.86,19.29Zm9.94,104L431.47,594l47.4,98.36ZM500,698.06,449,592.12h102.1Zm21.13-5.68L568.52,594l54.17,18.38Zm111.5-94.11L575.77,579l34-70.57h22.86Zm0-106.43H609.77l-33.94-70.45,56.8-19.27Z"/></svg>