<svg id="Capa_1" data-name="Capa 1" xmlns="http://www.w3.org/2000/svg" xmlns:xlink="http://www.w3.org/1999/xlink" viewBox="0 0 1000 1000"><defs><style>.cls-1{fill:url(#Degradado_sin_nombre_33);}</style><radialGradient id="Degradado_sin_nombre_33" cx="500" cy="500.06" r="276.92" gradientUnits="userSpaceOnUse"><stop offset="0" stop-color="aqua"/><stop offset="1" stop-color="#5aaee3"/></radialGradient></defs><title>Icon blue</title><path class="cls-1" d="M500,223.14c-152.94,0-276.92,124-276.92,276.92S347.06,777,500,777,776.92,653,776.92,500.06,652.94,223.14,500,223.14ZM622.81,387.89l-54.23,18.4-47.45-98.47ZM595.37,500.06,559,575.49H441l-36.34-75.43,36.27-75.28H559.09Zm-44.26-91.85H448.89L500,302.13ZM478.87,307.82l-47.45,98.47-54.23-18.4Zm-111.5,94.23,56.8,19.28-33.94,70.45H367.37Zm0,106.3h22.86l34,70.56-56.86,19.3Zm9.94,104L431.47,594l47.4,98.36ZM500,698,449,592.05h102.1Zm21.13-5.69L568.52,594l54.17,18.38Zm111.5-94.1-56.86-19.3,34-70.56h22.86Zm0-106.43H609.77l-33.94-70.45,56.8-19.28Z"/></svg>