<svg id="Capa_1" data-name="Capa 1" xmlns="http://www.w3.org/2000/svg" xmlns:xlink="http://www.w3.org/1999/xlink" viewBox="0 0 1000 1000"><defs><style>.cls-1{fill:#fff;}.cls-2{fill:url(#Degradado_sin_nombre_33);}</style><radialGradient id="Degradado_sin_nombre_33" cx="251.86" cy="500" r="98.87" gradientUnits="userSpaceOnUse"><stop offset="0" stop-color="aqua"/><stop offset="1" stop-color="#5aaee3"/></radialGradient></defs><title>Logo white</title><path class="cls-1" d="M450,531.24v16h-68V452.76H400v78.48Z"/><path class="cls-1" d="M475.51,547.24H457.44V452.89h18.07Z"/><path class="cls-1" d="M561.48,479a18.18,18.18,0,0,1-1.16,6.08,23.63,23.63,0,0,1-3.16,6,19,19,0,0,1-4.84,4.59,12,12,0,0,1-6.2,2,18.31,18.31,0,0,1,6.91,2,21.73,21.73,0,0,1,6.13,4.7,25.8,25.8,0,0,1,4.45,6.83,19.81,19.81,0,0,1,1.74,8.24A32.67,32.67,0,0,1,563,532.5a22.58,22.58,0,0,1-6.33,8.63,24.35,24.35,0,0,1-9.35,4.7,44.8,44.8,0,0,1-11.43,1.41H492.29V452.76h41.57a49.65,49.65,0,0,1,10.71,1.1,21.57,21.57,0,0,1,8.78,4,19.91,19.91,0,0,1,5.94,8Q561.48,471,561.48,479Zm-51.11,12.18h22.2a10,10,0,0,0,4.71-1,10.37,10.37,0,0,0,3.35-2.72,12.13,12.13,0,0,0,2.07-3.83,13.49,13.49,0,0,0,.71-4.22,10.93,10.93,0,0,0-.77-4,11.23,11.23,0,0,0-2.07-3.37,10.88,10.88,0,0,0-3-2.34,8,8,0,0,0-3.68-.91H510.37Zm25.55,40a9.25,9.25,0,0,0,4.39-1.1,12,12,0,0,0,3.62-3,15.39,15.39,0,0,0,2.45-4.13,12.25,12.25,0,0,0,.9-4.58,10.37,10.37,0,0,0-3.55-8q-3.56-3.22-9.74-3.23H510.37v24Z"/><path class="cls-1" d="M561.87,547.24l48.27-94.35H612l48.28,94.35H640.61l-7.36-14.84H588.72l-7.23,14.84Zm35.62-30.59h27l-13.42-28.52Z"/><path class="cls-1" d="M746.32,524a45.41,45.41,0,0,1-7.61,10.26,50.27,50.27,0,0,1-10,7.87,48.83,48.83,0,0,1-25.1,6.91,47.1,47.1,0,0,1-19-3.87,49.52,49.52,0,0,1-26.07-26.08,48.43,48.43,0,0,1,0-37.94,49.52,49.52,0,0,1,26.07-26.08,47.1,47.1,0,0,1,19-3.87,48.56,48.56,0,0,1,13.23,1.8,49.13,49.13,0,0,1,11.87,5.1,50.68,50.68,0,0,1,10,7.88,46.75,46.75,0,0,1,7.61,10.13L729.41,483a36.14,36.14,0,0,0-4.84-5.81,35.33,35.33,0,0,0-6.13-4.77,30.72,30.72,0,0,0-7.1-3.23A26.15,26.15,0,0,0,703.6,468a28,28,0,0,0-12.07,2.64,31.88,31.88,0,0,0-9.75,7,33.92,33.92,0,0,0-6.58,10.26,31.75,31.75,0,0,0,0,24.46,34.12,34.12,0,0,0,6.58,10.2,31.85,31.85,0,0,0,9.75,7,27.84,27.84,0,0,0,12.07,2.65,26.15,26.15,0,0,0,7.74-1.16,31.14,31.14,0,0,0,7.1-3.23,33,33,0,0,0,6.13-4.84,38.37,38.37,0,0,0,4.84-5.87Z"/><path class="cls-1" d="M798,549.05a47.09,47.09,0,0,1-19-3.87A49.59,49.59,0,0,1,752.9,519.1a48.92,48.92,0,0,1,0-38.14A49.42,49.42,0,0,1,779,454.82a48.77,48.77,0,0,1,38.08,0A49.36,49.36,0,0,1,843.13,481a48.92,48.92,0,0,1,0,38.14,49.52,49.52,0,0,1-26.07,26.08A47.44,47.44,0,0,1,798,549.05Zm.07-81.19a27.79,27.79,0,0,0-12,2.65,32.77,32.77,0,0,0-9.79,7,33.3,33.3,0,0,0-6.63,10.26,31.75,31.75,0,0,0,0,24.46,34,34,0,0,0,6.63,10.26,32.12,32.12,0,0,0,9.79,7.1,28.7,28.7,0,0,0,24.09,0,32,32,0,0,0,9.79-7.1,34,34,0,0,0,6.63-10.26,31.75,31.75,0,0,0,0-24.46,33.3,33.3,0,0,0-6.63-10.26,32.64,32.64,0,0,0-9.79-7A27.74,27.74,0,0,0,798,467.86Z"/><path class="cls-2" d="M251.86,401.13A98.87,98.87,0,1,0,350.73,500,98.87,98.87,0,0,0,251.86,401.13ZM295.71,460l-19.36,6.57-16.94-35.16ZM285.91,500l-13,26.93H230.79l-13-26.93,13-26.88H273Zm-15.8-32.8H233.62l18.24-37.87Zm-25.79-35.84-16.94,35.16L208,460ZM204.51,465l20.28,6.88L212.67,497h-8.16Zm0,37.95h8.16l12.14,25.19L204.51,535Zm3.55,37.12,19.34-6.56,16.92,35.12Zm43.8,30.59-18.22-37.83h36.45Zm7.55-2,16.92-35.12,19.34,6.56ZM299.22,535l-20.3-6.89L291.06,503h8.16Zm0-38h-8.16l-12.12-25.15L299.22,465Z"/></svg>